<?xml version="1.0" encoding="UTF-8"?>
<svg id="Layer_1" data-name="Layer 1" xmlns="http://www.w3.org/2000/svg" xmlns:xlink="http://www.w3.org/1999/xlink" viewBox="0 0 305.77 300.77">
  <defs>
    <style>
      .cls-1 {
        stroke-width: 3.12px;
      }

      .cls-1, .cls-2, .cls-3 {
        fill: none;
      }

      .cls-1, .cls-3 {
        stroke: #fff;
        stroke-miterlimit: 10;
      }

      .cls-4 {
        letter-spacing: 0em;
      }

      .cls-5 {
        fill: url(#linear-gradient);
      }

      .cls-5, .cls-2, .cls-6, .cls-7, .cls-8 {
        stroke-width: 0px;
      }

      .cls-9 {
        font-family: Cairo-Regular, Cairo;
      }

      .cls-9, .cls-6, .cls-10 {
        fill: #003260;
      }

      .cls-9, .cls-10 {
        font-size: 22.22px;
      }

      .cls-11 {
        letter-spacing: .12em;
      }

      .cls-12 {
        letter-spacing: 0em;
      }

      .cls-13 {
        letter-spacing: .12em;
      }

      .cls-7 {
        fill: url(#linear-gradient-2);
      }

      .cls-14 {
        letter-spacing: .12em;
      }

      .cls-3 {
        stroke-width: .25px;
      }

      .cls-15 {
        letter-spacing: .12em;
      }

      .cls-8 {
        fill: #fff;
      }

      .cls-10 {
        font-family: Cairo-Black, Cairo;
        font-weight: 800;
      }

      .cls-16 {
        letter-spacing: 0em;
      }
    </style>
    <linearGradient id="linear-gradient" x1=".85" y1="595.93" x2="1.85" y2="595.93" gradientTransform="translate(56468.15 46293.62) rotate(-50.83) scale(122.12 -122.12)" gradientUnits="userSpaceOnUse">
      <stop offset="0" stop-color="#7ae382"/>
      <stop offset="1" stop-color="#00d1e0"/>
    </linearGradient>
    <linearGradient id="linear-gradient-2" x1="129.8" y1="81.16" x2="187.54" y2="81.16" gradientTransform="matrix(1,0,0,1,0,0)" xlink:href="#linear-gradient"/>
  </defs>
  <g>
    <path class="cls-6" d="M57.44,157.17c-.19,0-.4-.01-.62-.03-.22-.02-.43-.04-.64-.06l.2-1.59c.21.01.4.03.58.06s.34.03.47.03c.7,0,1.27-.27,1.7-.79.43-.53.65-1.27.65-2.21v-11.55h1.75v11.55c0,.91-.18,1.71-.53,2.41-.35.69-.83,1.23-1.44,1.61-.61.38-1.32.57-2.13.57ZM68.34,157.17c-.52,0-1.08-.04-1.67-.12-.59-.08-1.24-.2-1.94-.35l.27-1.41c.79.1,1.45.18,1.98.22.53.04.98.07,1.35.07,1.24,0,2.14-.24,2.71-.71.57-.47.85-1.15.85-2.05v-10.79l.9.58h-3.78c-.87,0-1.53.1-2,.31-.47.21-.79.6-.97,1.18-.18.57-.27,1.41-.27,2.52s.09,1.94.27,2.52c.18.57.5.97.97,1.18.47.21,1.14.31,2,.31h2.89v1.59h-2.89c-1.3,0-2.31-.2-3.03-.59-.72-.4-1.23-1.01-1.52-1.84-.29-.83-.44-1.88-.44-3.17s.15-2.34.44-3.17c.29-.83.8-1.44,1.52-1.84.72-.4,1.74-.59,3.03-.59h4.64v11.78c0,.93-.21,1.72-.64,2.37-.43.66-1.03,1.15-1.83,1.49-.79.34-1.74.5-2.84.5ZM73.65,152.22v-1.59h2.42v1.59h-2.42ZM76.07,152.22c-.09,0-.16-.02-.22-.06-.06-.04-.1-.09-.13-.16-.03-.07-.05-.15-.07-.26-.01-.1-.02-.22-.02-.34,0-.16.01-.3.03-.41.02-.11.07-.2.13-.27.07-.07.16-.1.28-.1v1.59ZM76.07,152.22v-1.59c.09,0,.16.02.22.06.06.04.1.09.13.16.03.07.05.15.07.25.01.1.02.21.02.32s0,.23-.02.34c-.02.1-.04.19-.07.26-.03.07-.07.12-.13.16-.06.04-.13.06-.22.06ZM76.07,152.22v-1.59h5.6v1.59h-5.6ZM81.67,152.22c-.09,0-.16-.02-.22-.06-.06-.04-.1-.09-.13-.16-.03-.07-.05-.15-.07-.26-.01-.1-.02-.22-.02-.34,0-.16.01-.3.03-.41.02-.11.07-.2.13-.27.07-.07.16-.1.28-.1v1.59ZM81.67,152.22v-1.59c.09,0,.16.02.22.06.06.04.1.09.13.16.03.07.05.15.07.25.01.1.02.21.02.32s0,.23-.02.34c-.02.1-.04.19-.07.26-.03.07-.07.12-.13.16-.06.04-.13.06-.22.06ZM81.67,152.22v-1.59h5.6v1.59h-5.6ZM87.27,152.22c-.09,0-.16-.02-.22-.06-.06-.04-.1-.09-.13-.16-.03-.07-.05-.15-.07-.26-.01-.1-.02-.22-.02-.34,0-.16.01-.3.03-.41.02-.11.07-.2.13-.27.07-.07.16-.1.28-.1v1.59ZM87.27,152.22v-1.59h5.6v1.59h-5.6ZM87.27,152.22v-1.59c.09,0,.16.02.22.06.06.04.1.09.13.16.03.07.05.15.07.25.01.1.02.21.02.32s0,.23-.02.34c-.02.1-.04.19-.07.26-.03.07-.07.12-.13.16-.06.04-.13.06-.22.06ZM92.86,152.22c-.09,0-.16-.02-.22-.06-.06-.04-.1-.09-.13-.16-.03-.07-.05-.15-.07-.26-.01-.1-.02-.22-.02-.34,0-.16.01-.3.03-.41.02-.11.07-.2.13-.27.07-.07.16-.1.28-.1v1.59ZM92.86,152.22v-1.59h5.6v1.59h-5.6ZM92.86,152.22v-1.59c.09,0,.16.02.22.06.06.04.1.09.13.16.03.07.05.15.07.25.01.1.02.21.02.32s0,.23-.02.34c-.02.1-.04.19-.07.26-.03.07-.07.12-.13.16-.06.04-.13.06-.22.06ZM98.46,152.22c-.09,0-.16-.02-.22-.06-.06-.04-.1-.09-.13-.16-.03-.07-.05-.15-.07-.26-.01-.1-.02-.22-.02-.34,0-.16.01-.3.03-.41.02-.11.07-.2.13-.27.07-.07.16-.1.28-.1v1.59ZM98.46,152.22v-1.59h5.6v1.59h-5.6ZM98.46,152.22v-1.59c.09,0,.16.02.22.06.06.04.1.09.13.16.03.07.05.15.07.25.01.1.02.21.02.32s0,.23-.02.34c-.02.1-.04.19-.07.26-.03.07-.07.12-.13.16-.06.04-.13.06-.22.06ZM104.06,152.22c-.09,0-.16-.02-.22-.06-.06-.04-.1-.09-.13-.16-.03-.07-.05-.15-.07-.26-.01-.1-.02-.22-.02-.34,0-.16.01-.3.03-.41.02-.11.07-.2.13-.27.07-.07.16-.1.28-.1v1.59ZM104.06,152.22v-1.59c.09,0,.16.02.22.06.06.04.1.09.13.16.03.07.05.15.07.25.01.1.02.21.02.32s0,.23-.02.34c-.02.1-.04.19-.07.26-.03.07-.07.12-.13.16-.06.04-.13.06-.22.06ZM104.06,152.22v-1.59h5.6v1.59h-5.6ZM109.66,152.22c-.09,0-.16-.02-.22-.06-.06-.04-.1-.09-.13-.16-.03-.07-.05-.15-.07-.26-.01-.1-.02-.22-.02-.34,0-.16.01-.3.03-.41.02-.11.07-.2.13-.27.07-.07.16-.1.28-.1v1.59ZM109.66,152.22v-1.59h3.22l-.81.65v-10.26h1.75v11.2h-4.17ZM109.66,152.22v-1.59c.09,0,.16.02.22.06.06.04.1.09.13.16.03.07.05.15.07.25.01.1.02.21.02.32s0,.23-.02.34c-.02.1-.04.19-.07.26-.03.07-.07.12-.13.16-.06.04-.13.06-.22.06ZM110.55,139v-2.02h1.75v2.02h-1.75ZM113.62,139v-2.02h1.75v2.02h-1.75ZM113.82,152.22v-1.59h2.42v1.59h-2.42ZM116.24,152.22c-.09,0-.16-.02-.22-.06-.06-.04-.1-.09-.13-.16-.03-.07-.05-.15-.07-.26-.01-.1-.02-.22-.02-.34,0-.16.01-.3.03-.41.02-.11.07-.2.13-.27.07-.07.16-.1.28-.1v1.59ZM116.24,152.22v-1.59c.09,0,.16.02.22.06.06.04.1.09.13.16.03.07.05.15.07.25.01.1.02.21.02.32s0,.23-.02.34c-.02.1-.04.19-.07.26-.03.07-.07.12-.13.16-.06.04-.13.06-.22.06ZM116.24,152.22v-1.59h11.2l-.63.56v-3.99c0-.81-.11-1.47-.32-2-.22-.53-.54-.93-.96-1.19-.43-.26-.96-.39-1.6-.39h-4.88l-1.28-1.93.96-1.86c.18-.33.37-.66.56-1.01.19-.34.43-.74.72-1.19.28-.45.64-.99,1.07-1.63l1.46.87c-.43.66-.78,1.2-1.05,1.63-.27.43-.5.81-.68,1.12-.19.31-.36.63-.53.94l-1.12,2.15-.45-.69h5.22c.94,0,1.71.16,2.32.48.6.32,1.07.74,1.41,1.27.34.52.57,1.09.71,1.69.13.6.2,1.18.2,1.74v5.02h-12.32ZM131.13,152.22v-1.59h8.35l-1.43,1.28v-4.88c0-1.1-.13-1.98-.38-2.62-.25-.64-.67-1.1-1.24-1.38-.57-.28-1.35-.41-2.32-.41h-1.81v-1.59h1.81c1.19,0,2.22.19,3.07.56.85.37,1.5,1,1.95,1.87s.67,2.06.67,3.57v5.2h-8.67ZM139.8,152.22v-1.59h2.42v1.59h-2.42ZM142.22,152.22c-.09,0-.16-.02-.22-.06-.06-.04-.1-.09-.13-.16-.03-.07-.05-.15-.07-.26-.01-.1-.02-.22-.02-.34,0-.16.01-.3.03-.41.02-.11.07-.2.13-.27.07-.07.16-.1.28-.1v1.59ZM142.22,152.22v-1.59c.09,0,.16.02.22.06.06.04.1.09.13.16.03.07.05.15.07.25.01.1.02.21.02.32s0,.23-.02.34c-.02.1-.04.19-.07.26-.03.07-.07.12-.13.16-.06.04-.13.06-.22.06ZM142.22,152.22v-1.59h2.71v1.59h-2.71ZM144.93,152.22v-16.06h1.75v16.06h-1.75ZM150.53,152.22v-16.06h1.72v16.06h-1.72ZM165.22,152.22c-1.3,0-2.31-.2-3.03-.59-.72-.4-1.23-1.01-1.52-1.84-.29-.83-.44-1.88-.44-3.17s.15-2.34.44-3.17c.29-.83.8-1.44,1.52-1.84.72-.4,1.74-.59,3.03-.59h4.64v10.3h-1.75v-9.47l.9.76h-3.78c-.87,0-1.53.1-2,.31-.47.21-.79.6-.97,1.18-.18.57-.27,1.41-.27,2.52s.09,1.94.27,2.52c.18.57.5.97.97,1.18.47.21,1.14.31,2,.31h7.05v1.59h-7.05ZM163.04,139v-2.02h1.75v2.02h-1.75ZM166.11,139v-2.02h1.75v2.02h-1.75ZM172.27,152.22c-.09,0-.16-.02-.22-.06-.06-.04-.1-.09-.13-.16-.03-.07-.05-.15-.07-.26-.01-.1-.02-.22-.02-.34,0-.16.01-.3.03-.41.02-.11.07-.2.13-.27.07-.07.16-.1.28-.1v1.59ZM172.27,152.22v-1.59c.09,0,.16.02.22.06.06.04.1.09.13.16.03.07.05.15.07.25.01.1.02.21.02.32s0,.23-.02.34c-.02.1-.04.19-.07.26-.03.07-.07.12-.13.16-.06.04-.13.06-.22.06ZM172.27,152.22v-1.59h5.6v1.59h-5.6ZM177.87,152.22c-.09,0-.16-.02-.22-.06-.06-.04-.1-.09-.13-.16-.03-.07-.05-.15-.07-.26-.01-.1-.02-.22-.02-.34,0-.16.01-.3.03-.41.02-.11.07-.2.13-.27.07-.07.16-.1.28-.1v1.59ZM177.87,152.22v-1.59c.09,0,.16.02.22.06.06.04.1.09.13.16.03.07.05.15.07.25.01.1.02.21.02.32s0,.23-.02.34c-.02.1-.04.19-.07.26-.03.07-.07.12-.13.16-.06.04-.13.06-.22.06ZM177.87,152.22v-1.59h5.6v1.59h-5.6ZM183.47,152.22c-.09,0-.16-.02-.22-.06-.06-.04-.1-.09-.13-.16-.03-.07-.05-.15-.07-.26-.01-.1-.02-.22-.02-.34,0-.16.01-.3.03-.41.02-.11.07-.2.13-.27.07-.07.16-.1.28-.1v1.59ZM183.47,152.22v-1.59h5.6v1.59h-5.6ZM183.47,152.22v-1.59c.09,0,.16.02.22.06.06.04.1.09.13.16.03.07.05.15.07.25.01.1.02.21.02.32s0,.23-.02.34c-.02.1-.04.19-.07.26-.03.07-.07.12-.13.16-.06.04-.13.06-.22.06ZM189.06,152.22c-.09,0-.16-.02-.22-.06-.06-.04-.1-.09-.13-.16-.03-.07-.05-.15-.07-.26-.01-.1-.02-.22-.02-.34,0-.16.01-.3.03-.41.02-.11.07-.2.13-.27.07-.07.16-.1.28-.1v1.59ZM189.06,152.22v-1.59h5.6v1.59h-5.6ZM189.06,152.22v-1.59c.09,0,.16.02.22.06.06.04.1.09.13.16.03.07.05.15.07.25.01.1.02.21.02.32s0,.23-.02.34c-.02.1-.04.19-.07.26-.03.07-.07.12-.13.16-.06.04-.13.06-.22.06ZM194.66,152.22c-.09,0-.16-.02-.22-.06-.06-.04-.1-.09-.13-.16-.03-.07-.05-.15-.07-.26-.01-.1-.02-.22-.02-.34,0-.16.01-.3.03-.41.02-.11.07-.2.13-.27.07-.07.16-.1.28-.1v1.59ZM194.66,152.22v-1.59c.09,0,.16.02.22.06.06.04.1.09.13.16.03.07.05.15.07.25.01.1.02.21.02.32s0,.23-.02.34c-.02.1-.04.19-.07.26-.03.07-.07.12-.13.16-.06.04-.13.06-.22.06ZM194.66,152.22v-1.59h5.6v1.59h-5.6ZM200.26,152.22c-.09,0-.16-.02-.22-.06-.06-.04-.1-.09-.13-.16-.03-.07-.05-.15-.07-.26-.01-.1-.02-.22-.02-.34,0-.16.01-.3.03-.41.02-.11.07-.2.13-.27.07-.07.16-.1.28-.1v1.59ZM200.26,152.22v-1.59h3.22l-.81.65v-10.26h1.75v11.2h-4.17ZM200.26,152.22v-1.59c.09,0,.16.02.22.06.06.04.1.09.13.16.03.07.05.15.07.25.01.1.02.21.02.32s0,.23-.02.34c-.02.1-.04.19-.07.26-.03.07-.07.12-.13.16-.06.04-.13.06-.22.06ZM201.16,156.25v-2.02h1.75v2.02h-1.75ZM204.22,156.25v-2.02h1.75v2.02h-1.75ZM204.43,152.22v-1.59h2.42v1.59h-2.42ZM206.84,152.22c-.09,0-.16-.02-.22-.06-.06-.04-.1-.09-.13-.16-.03-.07-.05-.15-.07-.26-.01-.1-.02-.22-.02-.34,0-.16.01-.3.03-.41.02-.11.07-.2.13-.27.07-.07.16-.1.28-.1v1.59ZM206.84,152.22v-1.59c.09,0,.16.02.22.06.06.04.1.09.13.16.03.07.05.15.07.25.01.1.02.21.02.32s0,.23-.02.34c-.02.1-.04.19-.07.26-.03.07-.07.12-.13.16-.06.04-.13.06-.22.06ZM206.84,152.22v-1.59h2.71v1.59h-2.71ZM209.55,152.22v-16.06h1.75v16.06h-1.75ZM213.9,152.22v-1.59h8.35l-1.43,1.28v-4.88c0-1.1-.13-1.98-.38-2.62-.25-.64-.67-1.1-1.24-1.38-.57-.28-1.35-.41-2.32-.41h-1.81v-1.59h1.81c1.19,0,2.22.19,3.07.56.85.37,1.5,1,1.95,1.87s.67,2.06.67,3.57v5.2h-8.67ZM222.56,152.22v-1.59h2.42v1.59h-2.42ZM224.98,152.22c-.09,0-.16-.02-.22-.06-.06-.04-.1-.09-.13-.16-.03-.07-.05-.15-.07-.26-.01-.1-.02-.22-.02-.34,0-.16.01-.3.03-.41.02-.11.07-.2.13-.27.07-.07.16-.1.28-.1v1.59ZM224.98,152.22v-1.59c.09,0,.16.02.22.06.06.04.1.09.13.16.03.07.05.15.07.25.01.1.02.21.02.32s0,.23-.02.34c-.02.1-.04.19-.07.26-.03.07-.07.12-.13.16-.06.04-.13.06-.22.06ZM224.98,152.22v-1.59h3.22l-.81.65v-10.26h1.75v11.2h-4.17ZM225.88,156.25v-2.02h1.75v2.02h-1.75ZM228.95,156.25v-2.02h1.75v2.02h-1.75ZM229.15,152.22v-1.59h2.42v1.59h-2.42ZM231.57,152.22c-.09,0-.16-.02-.22-.06-.06-.04-.1-.09-.13-.16-.03-.07-.05-.15-.07-.26-.01-.1-.02-.22-.02-.34,0-.16.01-.3.03-.41.02-.11.07-.2.13-.27.07-.07.16-.1.28-.1v1.59ZM231.57,152.22v-1.59c.09,0,.16.02.22.06.06.04.1.09.13.16.03.07.05.15.07.25.01.1.02.21.02.32s0,.23-.02.34c-.02.1-.04.19-.07.26-.03.07-.07.12-.13.16-.06.04-.13.06-.22.06ZM231.57,152.22v-1.59h16.55l-1.61,1.46v-5.26c0-.94-.13-1.72-.39-2.34-.26-.62-.65-1.09-1.16-1.4-.52-.31-1.16-.47-1.94-.47-.66,0-1.27.11-1.83.32-.56.22-1.08.5-1.56.85-.48.35-.92.74-1.33,1.16-.41.43-.79.85-1.13,1.29-.34.43-.66.83-.94,1.19l-.56-1.59c.37-.46.75-.93,1.13-1.39.38-.46.78-.9,1.2-1.31.42-.41.88-.77,1.38-1.09.5-.31,1.05-.56,1.65-.75.6-.19,1.27-.28,2.02-.28,1.06,0,1.93.18,2.61.54.68.36,1.21.83,1.59,1.42.38.59.65,1.22.79,1.89.15.67.22,1.32.22,1.95v5.4h-16.68ZM234.75,150.63v-9.61h1.75v9.61h-1.75Z"/>
    <path class="cls-6" d="M67.29,182.81c-.97,0-1.87-.14-2.7-.41-.83-.28-1.55-.66-2.16-1.14-.61-.49-1.09-1.06-1.44-1.72-.35-.66-.53-1.38-.53-2.16,0-.28.02-.65.07-1.1.04-.45.11-.96.19-1.55.08-.58.18-1.2.28-1.86l2.96.4c-.15.94-.27,1.78-.36,2.51-.09.73-.13,1.25-.13,1.55,0,.57.16,1.07.47,1.5.31.43.76.77,1.33,1.02.57.25,1.25.37,2.03.37h6.34c.97,0,1.69-.25,2.17-.74.48-.49.72-1.21.72-2.15v-.85h2.98v.85c0,1.07-.24,2.02-.72,2.84-.48.82-1.15,1.47-2.03,1.94-.87.47-1.91.71-3.12.71h-6.34ZM66.53,187.42v-2.55h2.89v2.55h-2.89ZM70.61,187.42v-2.55h2.89v2.55h-2.89ZM75.53,177.25c-.69,0-1.35-.07-1.98-.22-.63-.15-1.24-.42-1.8-.81l1.7-2.15c.24.16.45.29.64.37.19.08.4.14.63.17.23.03.5.04.82.04h4.95v2.6h-4.95ZM80.48,177.25c-.09,0-.16-.03-.21-.09-.05-.06-.1-.15-.13-.26-.04-.11-.06-.25-.08-.41-.01-.16-.02-.34-.02-.54,0-.27.02-.5.04-.68.03-.19.08-.34.15-.45.07-.11.15-.17.26-.17v2.6ZM80.48,177.25v-2.6c.07,0,.14.03.2.09.06.06.1.15.13.27.03.12.06.26.08.41.02.16.03.33.03.53s-.01.37-.03.54c-.02.16-.05.3-.08.41-.03.11-.07.2-.13.26-.06.06-.13.09-.2.09ZM80.48,177.25v-2.6h5.6v2.6h-5.6ZM86.08,177.25c-.09,0-.16-.03-.21-.09-.05-.06-.1-.15-.13-.26-.04-.11-.06-.25-.08-.41-.01-.16-.02-.34-.02-.54,0-.27.02-.5.04-.68.03-.19.08-.34.15-.45.07-.11.15-.17.26-.17v2.6ZM86.08,177.25v-2.6c.09,0,.16.03.21.09.05.06.1.15.13.27.04.12.06.26.08.41.01.16.02.33.02.53s0,.37-.02.54c-.02.16-.04.3-.08.41-.04.11-.08.2-.13.26-.05.06-.12.09-.21.09ZM86.08,177.25v-2.6h5.6v2.6h-5.6ZM91.68,177.25c-.09,0-.16-.03-.21-.09-.05-.06-.1-.15-.13-.26-.04-.11-.06-.25-.08-.41-.01-.16-.02-.34-.02-.54,0-.27.02-.5.04-.68.03-.19.08-.34.15-.45.07-.11.15-.17.26-.17v2.6ZM91.68,177.25v-2.6h5.6v2.6h-5.6ZM91.68,177.25v-2.6c.09,0,.16.03.21.09.05.06.1.15.13.27.04.12.06.26.08.41.01.16.02.33.02.53s0,.37-.02.54c-.02.16-.04.3-.08.41-.04.11-.08.2-.13.26-.05.06-.12.09-.21.09ZM97.28,177.25c-.09,0-.16-.03-.21-.09-.05-.06-.1-.15-.13-.26-.04-.11-.06-.25-.08-.41-.01-.16-.02-.34-.02-.54,0-.27.02-.5.04-.68.03-.19.08-.34.15-.45.07-.11.15-.17.26-.17v2.6ZM97.28,177.25v-2.6h5.6v2.6h-5.6ZM97.28,177.25v-2.6c.09,0,.16.03.21.09.05.06.1.15.13.27.04.12.06.26.08.41.01.16.02.33.02.53s0,.37-.02.54c-.02.16-.04.3-.08.41-.04.11-.08.2-.13.26-.05.06-.12.09-.21.09ZM102.87,177.25c-.09,0-.16-.03-.21-.09-.05-.06-.1-.15-.13-.26-.04-.11-.06-.25-.08-.41-.01-.16-.02-.34-.02-.54,0-.27.02-.5.04-.68.03-.19.08-.34.15-.45.07-.11.15-.17.26-.17v2.6ZM102.87,177.25v-2.6h5.6v2.6h-5.6ZM102.87,177.25v-2.6c.09,0,.16.03.21.09.05.06.1.15.13.27.04.12.06.26.08.41.01.16.02.33.02.53s0,.37-.02.54c-.02.16-.04.3-.08.41-.04.11-.08.2-.13.26-.05.06-.12.09-.21.09ZM108.47,177.25c-.09,0-.16-.03-.21-.09-.05-.06-.1-.15-.13-.26-.04-.11-.06-.25-.08-.41-.01-.16-.02-.34-.02-.54,0-.27.02-.5.04-.68.03-.19.08-.34.15-.45.07-.11.15-.17.26-.17v2.6ZM108.47,177.25v-2.6c.09,0,.16.03.21.09.05.06.1.15.13.27.04.12.06.26.08.41.01.16.02.33.02.53s0,.37-.02.54c-.02.16-.04.3-.08.41-.04.11-.08.2-.13.26-.05.06-.12.09-.21.09ZM108.47,177.25v-2.6h5.6v2.6h-5.6ZM114.07,177.25c-.09,0-.16-.03-.21-.09-.05-.06-.1-.15-.13-.26-.04-.11-.06-.25-.08-.41-.01-.16-.02-.34-.02-.54,0-.27.02-.5.04-.68.03-.19.08-.34.15-.45.07-.11.15-.17.26-.17v2.6ZM114.07,177.25v-2.6h5.31l-1.75,1.46v-10.1h2.98v11.24h-6.54ZM114.07,177.25v-2.6c.09,0,.16.03.21.09.05.06.1.15.13.27.04.12.06.26.08.41.01.16.02.33.02.53s0,.37-.02.54c-.02.16-.04.3-.08.41-.04.11-.08.2-.13.26-.05.06-.12.09-.21.09ZM115.64,163.95v-2.55h2.89v2.55h-2.89ZM117.81,160.52v-2.24h2.6v2.24h-2.6ZM119.71,163.95v-2.55h2.89v2.55h-2.89ZM120.61,177.25v-2.6h2.8v2.6h-2.8ZM123.41,177.25c-.09,0-.16-.03-.21-.09-.05-.06-.1-.15-.13-.26-.04-.11-.06-.25-.08-.41-.01-.16-.02-.34-.02-.54,0-.27.02-.5.04-.68.03-.19.08-.34.15-.45.07-.11.15-.17.26-.17v2.6ZM123.41,177.25v-2.6c.07,0,.14.03.2.09.06.06.1.15.13.27.03.12.06.26.08.41.02.16.03.33.03.53s-.01.37-.03.54c-.02.16-.05.3-.08.41-.03.11-.07.2-.12.26-.05.06-.12.09-.21.09ZM123.41,177.25v-2.6h5.31l-1.75,1.46v-10.1h2.98v11.24h-6.54ZM124.21,182.02v-2.55h2.89v2.55h-2.89ZM128.29,182.02v-2.55h2.89v2.55h-2.89ZM129.95,177.25v-2.6h2.8v2.6h-2.8ZM132.75,177.25c-.09,0-.16-.03-.21-.09-.05-.06-.1-.15-.13-.26-.04-.11-.06-.25-.08-.41-.01-.16-.02-.34-.02-.54,0-.27.02-.5.04-.68.03-.19.08-.34.15-.45.07-.11.15-.17.26-.17v2.6ZM132.75,177.25v-2.6c.07,0,.14.03.2.09.06.06.1.15.13.27.03.12.06.26.08.41.02.16.03.33.03.53s-.01.37-.03.54c-.02.16-.05.3-.08.41-.03.11-.07.2-.12.26-.05.06-.12.09-.21.09ZM132.75,177.25v-2.6h2.53v2.6h-2.53ZM135.28,177.25v-15.83h3v15.83h-3ZM138.28,177.25v-2.6h2.35v2.6h-2.35ZM140.63,177.25c-.09,0-.16-.03-.21-.09-.05-.06-.1-.15-.13-.26-.04-.11-.06-.25-.08-.41-.01-.16-.02-.34-.02-.54,0-.27.02-.5.04-.68.03-.19.08-.34.15-.45.07-.11.15-.17.26-.17v2.6ZM140.63,177.25v-2.6c.09,0,.16.03.22.09.06.06.1.15.13.27.03.12.05.26.07.41.01.16.02.33.02.53s0,.37-.02.54c-.02.16-.04.3-.07.41-.03.11-.07.2-.13.26-.06.06-.13.09-.22.09ZM140.63,177.25v-2.6h2.53v2.6h-2.53ZM143.16,177.25v-15.83h3v15.83h-3ZM149.74,177.25v-15.83h2.98v15.83h-2.98ZM160.51,177.25v-2.6h8.13l-2.04,1.77v-3.76c0-1.06-.11-1.88-.32-2.46-.22-.58-.57-.99-1.07-1.23-.5-.24-1.18-.36-2.05-.36h-1.81v-2.6h1.81c1.37,0,2.54.22,3.5.67.96.45,1.69,1.16,2.19,2.14.5.98.75,2.26.75,3.84v4.59h-9.09ZM169.6,177.25v-2.6h2.35v2.6h-2.35ZM171.96,177.25c-.09,0-.16-.03-.21-.09-.05-.06-.1-.15-.13-.26-.04-.11-.06-.25-.08-.41-.01-.16-.02-.34-.02-.54,0-.27.02-.5.04-.68.03-.19.08-.34.15-.45.07-.11.15-.17.26-.17v2.6ZM171.96,177.25v-2.6h5.6v2.6h-5.6ZM171.96,177.25v-2.6c.09,0,.16.03.22.09.06.06.1.15.13.27.03.12.05.26.07.41.01.16.02.33.02.53s0,.37-.02.54c-.02.16-.04.3-.07.41-.03.11-.07.2-.13.26-.06.06-.13.09-.22.09ZM177.55,177.25c-.09,0-.16-.03-.21-.09-.05-.06-.1-.15-.13-.26-.04-.11-.06-.25-.08-.41-.01-.16-.02-.34-.02-.54,0-.27.02-.5.04-.68.03-.19.08-.34.15-.45.07-.11.15-.17.26-.17v2.6ZM177.55,177.25v-2.6h5.6v2.6h-5.6ZM177.55,177.25v-2.6c.09,0,.16.03.21.09.05.06.1.15.13.27.04.12.06.26.08.41.01.16.02.33.02.53s0,.37-.02.54c-.02.16-.04.3-.08.41-.04.11-.08.2-.13.26-.05.06-.12.09-.21.09ZM183.15,177.25c-.09,0-.16-.03-.21-.09-.05-.06-.1-.15-.13-.26-.04-.11-.06-.25-.08-.41-.01-.16-.02-.34-.02-.54,0-.27.02-.5.04-.68.03-.19.08-.34.15-.45.07-.11.15-.17.26-.17v2.6ZM183.15,177.25v-2.6h5.6v2.6h-5.6ZM183.15,177.25v-2.6c.09,0,.16.03.21.09.05.06.1.15.13.27.04.12.06.26.08.41.01.16.02.33.02.53s0,.37-.02.54c-.02.16-.04.3-.08.41-.04.11-.08.2-.13.26-.05.06-.12.09-.21.09ZM188.75,177.25c-.09,0-.16-.03-.21-.09-.05-.06-.1-.15-.13-.26-.04-.11-.06-.25-.08-.41-.01-.16-.02-.34-.02-.54,0-.27.02-.5.04-.68.03-.19.08-.34.15-.45.07-.11.15-.17.26-.17v2.6ZM188.75,177.25v-2.6h5.6v2.6h-5.6ZM188.75,177.25v-2.6c.09,0,.16.03.21.09.05.06.1.15.13.27.04.12.06.26.08.41.01.16.02.33.02.53s0,.37-.02.54c-.02.16-.04.3-.08.41-.04.11-.08.2-.13.26-.05.06-.12.09-.21.09ZM194.35,177.25c-.09,0-.16-.03-.21-.09-.05-.06-.1-.15-.13-.26-.04-.11-.06-.25-.08-.41-.01-.16-.02-.34-.02-.54,0-.27.02-.5.04-.68.03-.19.08-.34.15-.45.07-.11.15-.17.26-.17v2.6ZM194.35,177.25v-2.6c.09,0,.16.03.21.09.05.06.1.15.13.27.04.12.06.26.08.41.01.16.02.33.02.53s0,.37-.02.54c-.02.16-.04.3-.08.41-.04.11-.08.2-.13.26-.05.06-.12.09-.21.09ZM194.35,177.25v-2.6h5.6v2.6h-5.6ZM199.95,177.25c-.09,0-.16-.03-.21-.09-.05-.06-.1-.15-.13-.26-.04-.11-.06-.25-.08-.41-.01-.16-.02-.34-.02-.54,0-.27.02-.5.04-.68.03-.19.08-.34.15-.45.07-.11.15-.17.26-.17v2.6ZM199.95,177.25v-2.6h5.6v2.6h-5.6ZM199.95,177.25v-2.6c.09,0,.16.03.21.09.05.06.1.15.13.27.04.12.06.26.08.41.01.16.02.33.02.53s0,.37-.02.54c-.02.16-.04.3-.08.41-.04.11-.08.2-.13.26-.05.06-.12.09-.21.09ZM205.55,177.25c-.09,0-.16-.03-.21-.09-.05-.06-.1-.15-.13-.26-.04-.11-.06-.25-.08-.41-.01-.16-.02-.34-.02-.54,0-.27.02-.5.04-.68.03-.19.08-.34.15-.45.07-.11.15-.17.26-.17v2.6ZM205.55,177.25v-2.6h11.62l-1.37,1.16v-4.12c0-.81-.09-1.44-.27-1.89-.18-.46-.49-.78-.93-.96-.44-.19-1.05-.28-1.83-.28-.61,0-1.21.04-1.8.12-.59.08-1.05.19-1.38.32l1.86-1.75c-.09.34-.18.78-.26,1.3-.08.52-.15,1.08-.21,1.67-.06.59-.09,1.17-.09,1.74,0,.52.03,1.07.08,1.63.05.57.11,1.07.18,1.5.07.43.12.73.17.9l-2.84.78c-.06-.21-.13-.55-.22-1.03-.09-.48-.17-1.04-.24-1.7-.07-.66-.1-1.35-.1-2.08s.04-1.47.11-2.16c.07-.69.16-1.32.26-1.88.1-.56.19-1.01.28-1.35.36-.13.92-.27,1.68-.4.76-.13,1.6-.2,2.53-.2,1.34,0,2.46.19,3.35.56.89.37,1.55.98,1.99,1.81.44.84.66,1.96.66,3.38v5.53h-13.23ZM205.55,177.25v-2.6c.09,0,.16.03.21.09.05.06.1.15.13.27.04.12.06.26.08.41.01.16.02.33.02.53s0,.37-.02.54c-.02.16-.04.3-.08.41-.04.11-.08.2-.13.26-.05.06-.12.09-.21.09ZM218.78,177.25v-2.6h2.37v2.6h-2.37ZM221.15,177.25c-.09,0-.16-.03-.21-.09-.05-.06-.1-.15-.13-.26-.04-.11-.06-.25-.08-.41-.01-.16-.02-.34-.02-.54,0-.27.02-.5.04-.68.03-.19.08-.34.15-.45.07-.11.15-.17.26-.17v2.6ZM221.15,177.25v-2.6c.07,0,.14.03.2.09.06.06.1.15.13.27.03.12.06.26.08.41.02.16.03.33.03.53s-.01.37-.03.54c-.02.16-.05.3-.08.41-.03.11-.07.2-.13.26-.06.06-.13.09-.2.09ZM221.15,177.25v-2.6h9.63l-1.01.83v-4.14c0-.9-.28-1.57-.84-2.04-.56-.46-1.44-.69-2.65-.69-.34,0-.81.03-1.41.08-.6.05-1.25.13-1.95.24l-.29-2.37c.64-.15,1.29-.28,1.96-.38.66-.1,1.32-.16,1.96-.16,1.22,0,2.3.21,3.22.64.93.43,1.65,1.03,2.18,1.83.53.79.79,1.75.79,2.87v5.91h-11.6ZM232.75,177.25v-2.6h2.37v2.6h-2.37ZM235.13,177.25c-.09,0-.16-.03-.21-.09-.05-.06-.1-.15-.13-.26-.04-.11-.06-.25-.08-.41-.01-.16-.02-.34-.02-.54,0-.27.02-.5.04-.68.03-.19.08-.34.15-.45.07-.11.15-.17.26-.17v2.6ZM235.13,177.25v-2.6h11.62l-1.37,1.16v-4.12c0-.81-.09-1.44-.27-1.89-.18-.46-.49-.78-.93-.96-.44-.19-1.05-.28-1.83-.28-.61,0-1.21.04-1.8.12-.59.08-1.05.19-1.38.32l1.86-1.75c-.09.34-.18.78-.26,1.3-.08.52-.15,1.08-.21,1.67-.06.59-.09,1.17-.09,1.74,0,.52.03,1.07.08,1.63.05.57.11,1.07.18,1.5.07.43.12.73.17.9l-2.84.78c-.06-.21-.13-.55-.22-1.03-.09-.48-.17-1.04-.24-1.7-.07-.66-.1-1.35-.1-2.08s.04-1.47.11-2.16c.07-.69.16-1.32.26-1.88.1-.56.19-1.01.28-1.35.36-.13.92-.27,1.68-.4.76-.13,1.6-.2,2.53-.2,1.34,0,2.46.19,3.35.56.89.37,1.55.98,1.99,1.81.44.84.66,1.96.66,3.38v5.53h-13.23ZM235.13,177.25v-2.6c.07,0,.14.03.2.09.06.06.1.15.13.27.03.12.06.26.08.41.02.16.03.33.03.53s-.01.37-.03.54c-.02.16-.05.3-.08.41-.03.11-.07.2-.13.26-.06.06-.13.09-.2.09Z"/>
    <polyline class="cls-5" points="57.97 194.82 248.7 194.82 248.7 195.82 57.97 195.82"/>
    <text class="cls-9" transform="translate(57.98 217.43)"><tspan class="cls-11" x="0" y="0">P</tspan><tspan class="cls-14" x="15.85" y="0">ha</tspan><tspan class="cls-11" x="44.2" y="0">r</tspan><tspan class="cls-14" x="54.56" y="0">m</tspan><tspan class="cls-11" x="75.78" y="0">acy</tspan><tspan class="cls-14" x="115.34" y="0">D</tspan><tspan class="cls-13" x="132.32" y="0">oc</tspan><tspan class="cls-15" x="159.07" y="0">t</tspan><tspan class="cls-13" x="169.52" y="0">o</tspan><tspan class="cls-12" x="183.92" y="0">r</tspan></text>
    <text class="cls-10" transform="translate(57.98 244.1)"><tspan class="cls-16" x="0" y="0">M</tspan><tspan x="19.22" y="0">ohamed El-Lait</tspan><tspan class="cls-4" x="166.67" y="0">h</tspan><tspan x="179.12" y="0">y</tspan></text>
  </g>
  <g>
    <path class="cls-7" d="M189.51,81.16c0,20.39-16.54,36.94-36.94,36.94s-36.94-16.54-36.94-36.94,16.54-36.94,36.94-36.94,36.94,16.54,36.94,36.94Z"/>
    <circle class="cls-2" cx="152.57" cy="81.16" r="36.94"/>
    <g>
      <path class="cls-3" d="M115.64,81.16c0,20.4,16.53,36.93,36.93,36.93s36.93-16.53,36.93-36.93-16.53-36.93-36.93-36.93-36.93,16.53-36.93,36.93Z"/>
      <path class="cls-8" d="M152.58,115.35c-9.33,0-17.04-7.09-18.02-16.17-9.08-.98-16.17-8.69-16.17-18.02,0-18.85,15.34-34.19,34.19-34.19s34.19,15.34,34.19,34.19-15.34,34.19-34.19,34.19ZM138.73,99.29c1,6.74,6.83,11.93,13.84,11.93,16.57,0,30.06-13.48,30.06-30.06s-13.48-30.06-30.06-30.06-30.06,13.48-30.06,30.06c0,7.02,5.19,12.84,11.93,13.84v-21.87c0-5.57,4.53-10.09,10.1-10.09s10.1,4.53,10.1,10.09v5.97h5.96c5.57,0,10.1,4.53,10.1,10.09s-4.53,10.1-10.1,10.1h-21.87ZM138.58,95.16h22.02c3.29,0,5.97-2.68,5.97-5.97s-2.68-5.96-5.97-5.96h-5.96v5.96h-4.13v-16.06c0-3.29-2.68-5.96-5.97-5.96s-5.97,2.68-5.97,5.96v22.03Z"/>
    </g>
    <path class="cls-1" d="M136.51,92.34v4.88c0,1.62.24,3.19.69,4.66"/>
    <path class="cls-8" d="M171.12,80.54c-.09,0-.12-.08-.12-.26,0-.16.03-.21.12-.21.07,0,.17.01.22.03v-.29s-.13-.05-.25-.05c-.3,0-.44.12-.44.53,0,.46.13.58.42.58.15,0,.24-.04.28-.07v-.28c-.07.01-.17.03-.24.03ZM171.12,80.54c-.09,0-.12-.08-.12-.26,0-.16.03-.21.12-.21.07,0,.17.01.22.03v-.29s-.13-.05-.25-.05c-.3,0-.44.12-.44.53,0,.46.13.58.42.58.15,0,.24-.04.28-.07v-.28c-.07.01-.17.03-.24.03ZM171.12,80.06c.07,0,.17.01.22.03v-.29s-.13-.05-.25-.05c-.3,0-.44.12-.44.53,0,.46.13.58.42.58.15,0,.24-.04.28-.07v-.28c-.07.01-.17.03-.24.03-.09,0-.12-.08-.12-.26,0-.16.03-.21.12-.21ZM171.05,79.35c-.54,0-.93.4-.93.95s.4.95.93.95c.57,0,.93-.41.93-.95s-.36-.95-.93-.95ZM171.05,81.05c-.41,0-.71-.34-.71-.75s.3-.75.71-.75.71.34.71.75-.3.75-.71.75Z"/>
  </g>
</svg>